<svg width="303" height="37" viewBox="0 0 303 37" fill="none" xmlns="http://www.w3.org/2000/svg">
  <g clip-path="url(#clip0)">
    <path d="M67.1237 5.44924C66.3395 5.44924 65.7658 5.35122 65.4025 5.15517C65.045 4.95911 64.8663 4.65639 64.8663 4.24699V1.22836C64.8663 0.81896 65.0508 0.510466 65.4198 0.302882C65.7831 0.101064 66.3511 0.000152588 67.1237 0.000152588H68.1617C68.9343 0.000152588 69.5023 0.101064 69.8656 0.302882C70.2231 0.510466 70.4018 0.81896 70.4018 1.22836V4.24699C70.4018 4.65639 70.2231 4.95911 69.8656 5.15517C69.5023 5.35122 68.9343 5.44924 68.1617 5.44924H67.1237ZM64.9355 36.2755C63.9206 36.2755 63.1306 36.2179 62.5655 36.1025C62.0004 35.9815 61.5997 35.7796 61.3633 35.4971C61.1211 35.2145 61 34.8282 61 34.3381C61 34.0267 61.0605 33.6634 61.1816 33.2483C61.3027 32.8331 61.4699 32.4785 61.6833 32.1844C61.8909 31.8903 62.1215 31.7433 62.3752 31.7433C62.4444 31.7433 62.6145 31.7663 62.8856 31.8125C63.1508 31.8644 63.3613 31.8903 63.517 31.8903C63.9956 31.8903 64.3415 31.7635 64.5549 31.5097C64.7625 31.256 64.8663 30.8409 64.8663 30.2642V9.79987C64.8663 9.40777 65.0508 9.1108 65.4198 8.90899C65.7831 8.71293 66.3511 8.61491 67.1237 8.61491H68.1617C68.9343 8.61491 69.5023 8.71293 69.8656 8.90899C70.2231 9.1108 70.4018 9.40777 70.4018 9.79987V30.195C70.4018 31.5213 70.1654 32.6399 69.6926 33.551C69.2198 34.4678 68.5768 35.1511 67.7638 35.6009C66.945 36.0507 66.0022 36.2755 64.9355 36.2755ZM79.7345 28.6382C77.8201 28.6382 76.416 28.1336 75.5223 27.1245C74.6285 26.1154 74.1816 24.7805 74.1816 23.1199C74.1816 21.8686 74.4411 20.7413 74.9601 19.738C75.479 18.7289 76.5342 17.8784 78.1257 17.1864C79.7172 16.5002 81.992 16.1571 84.9501 16.1571V14.9116C84.9501 14.1793 84.7165 13.6373 84.2495 13.2856C83.7882 12.9338 83.0501 12.7579 82.0352 12.7579C81.1876 12.7579 80.461 12.8444 79.8556 13.0174C79.2501 13.1962 78.5957 13.4326 77.8922 13.7267C77.5289 13.8939 77.304 13.9775 77.2175 13.9775C76.9638 13.9775 76.687 13.7872 76.3872 13.4066C76.0816 13.0261 75.8163 12.5907 75.5915 12.1006C75.3666 11.6105 75.2541 11.2385 75.2541 10.9848C75.2541 10.5466 75.5684 10.1257 76.1969 9.72202C76.8197 9.32415 77.6817 9.00124 78.7831 8.7533C79.8787 8.50535 81.0953 8.38138 82.4331 8.38138C85.247 8.38138 87.2969 8.9407 88.5828 10.0593C89.8629 11.178 90.5029 12.7089 90.5029 14.6522V21.6841C90.5029 22.8546 90.5347 23.7628 90.5981 24.4086C90.6615 25.0602 90.748 25.7031 90.8576 26.3374C90.9325 26.7122 90.97 26.9775 90.97 27.1332C90.97 27.4157 90.7048 27.6492 90.1743 27.8338C89.6438 28.0183 89.0412 28.1509 88.3666 28.2316C87.6919 28.3181 87.1499 28.3614 86.7405 28.3614C86.308 28.3614 85.9966 28.174 85.8063 27.7992C85.6161 27.4244 85.4633 26.9141 85.3479 26.2682C85.3364 26.1875 85.322 26.1039 85.3047 26.0174C85.2931 25.9309 85.273 25.8473 85.2441 25.7666C85.1 26.0318 84.8001 26.3893 84.3446 26.8391C83.8891 27.2889 83.2663 27.7011 82.4763 28.0759C81.6864 28.4508 80.7724 28.6382 79.7345 28.6382ZM81.5682 24.2183C82.2716 24.2183 82.9348 23.9963 83.5575 23.5523C84.1745 23.1141 84.6387 22.549 84.9501 21.8571V19.7899C81.4442 19.7899 79.6913 20.7096 79.6913 22.549C79.6913 23.0449 79.8556 23.4485 80.1843 23.7599C80.5187 24.0655 80.98 24.2183 81.5682 24.2183ZM97.803 28.3787C96.298 28.3787 95.5455 27.9866 95.5455 27.2024V1.22836C95.5455 0.81896 95.73 0.510466 96.0991 0.302882C96.4623 0.101064 97.0303 0.000152588 97.803 0.000152588H98.8409C100.346 0.000152588 101.098 0.409557 101.098 1.22836V16.0706L101.228 16.1139L105.786 9.3328C105.982 9.03872 106.256 8.84556 106.608 8.7533C106.96 8.66104 107.447 8.61491 108.07 8.61491H109.462C110.869 8.61491 111.573 8.80519 111.573 9.18576C111.573 9.38182 111.455 9.62111 111.218 9.90366L106.02 17.3594L112.126 27.0294C112.334 27.3811 112.438 27.6406 112.438 27.8078C112.438 28.1884 111.72 28.3787 110.284 28.3787H108.718C108.113 28.3787 107.623 28.3297 107.248 28.2316C106.868 28.1336 106.605 27.9433 106.461 27.6608L101.228 19.0287L101.098 19.0893V27.2024C101.098 27.9866 100.346 28.3787 98.8409 28.3787H97.803ZM117.186 28.3787C115.693 28.3787 114.946 27.9866 114.946 27.2024V15.2922C114.946 13.4874 114.828 11.9882 114.591 10.7945C114.522 10.414 114.488 10.1458 114.488 9.99015C114.488 9.70761 114.75 9.47984 115.275 9.30686C115.805 9.1281 116.405 8.99548 117.074 8.90899C117.743 8.82826 118.282 8.78789 118.691 8.78789C119.124 8.78789 119.429 8.94935 119.608 9.27226C119.781 9.59517 119.94 10.0651 120.084 10.6821L120.205 11.2357C120.799 10.4457 121.592 9.77392 122.583 9.22036C123.575 8.66104 124.642 8.38138 125.784 8.38138C127.669 8.38138 129.062 8.87439 129.961 9.86041C130.867 10.8464 131.319 12.3745 131.319 14.4446V27.2024C131.319 27.9866 130.558 28.3787 129.036 28.3787H127.998C126.504 28.3787 125.758 27.9866 125.758 27.2024V15.2922C125.758 14.5311 125.579 13.9516 125.221 13.5537C124.864 13.1616 124.284 12.9655 123.483 12.9655C122.808 12.9655 122.209 13.1904 121.684 13.6402C121.165 14.0899 120.773 14.5916 120.508 15.1452V27.2024C120.508 27.9866 119.746 28.3787 118.224 28.3787H117.186ZM140.643 28.6382C138.729 28.6382 137.325 28.1336 136.431 27.1245C135.537 26.1154 135.09 24.7805 135.09 23.1199C135.09 21.8686 135.353 20.7413 135.877 19.738C136.396 18.7289 137.452 17.8784 139.043 17.1864C140.635 16.5002 142.906 16.1571 145.859 16.1571V14.9116C145.859 14.1793 145.628 13.6373 145.167 13.2856C144.7 12.9338 143.959 12.7579 142.944 12.7579C142.102 12.7579 141.378 12.8444 140.773 13.0174C140.168 13.1962 139.513 13.4326 138.81 13.7267C138.446 13.8939 138.221 13.9775 138.135 13.9775C137.881 13.9775 137.602 13.7872 137.296 13.4066C136.996 13.0261 136.734 12.5907 136.509 12.1006C136.284 11.6105 136.172 11.2385 136.172 10.9848C136.172 10.5466 136.483 10.1257 137.106 9.72202C137.734 9.32415 138.599 9.00124 139.7 8.7533C140.796 8.50535 142.013 8.38138 143.35 8.38138C146.164 8.38138 148.211 8.9407 149.492 10.0593C150.777 11.178 151.42 12.7089 151.42 14.6522V21.6841C151.42 22.8546 151.449 23.7628 151.507 24.4086C151.57 25.0602 151.66 25.7031 151.775 26.3374C151.844 26.7122 151.879 26.9775 151.879 27.1332C151.879 27.4157 151.616 27.6492 151.092 27.8338C150.561 28.0183 149.959 28.1509 149.284 28.2316C148.609 28.3181 148.067 28.3614 147.658 28.3614C147.22 28.3614 146.905 28.174 146.715 27.7992C146.525 27.4244 146.375 26.9141 146.265 26.2682C146.248 26.1875 146.234 26.1039 146.222 26.0174C146.205 25.9309 146.185 25.8473 146.162 25.7666C146.017 26.0318 145.718 26.3893 145.262 26.8391C144.801 27.2889 144.178 27.7011 143.394 28.0759C142.604 28.4508 141.687 28.6382 140.643 28.6382ZM142.486 24.2183C143.189 24.2183 143.849 23.9963 144.466 23.5523C145.089 23.1141 145.553 22.549 145.859 21.8571V19.7899C142.359 19.7899 140.609 20.7096 140.609 22.549C140.609 23.0449 140.773 23.4485 141.102 23.7599C141.43 24.0655 141.892 24.2183 142.486 24.2183ZM164.991 28.6382C161.797 28.6382 159.424 27.8107 157.873 26.1558C156.327 24.5009 155.555 21.9897 155.555 18.6222C155.555 15.2317 156.336 12.6772 157.899 10.9589C159.461 9.24054 161.895 8.38138 165.199 8.38138C166.144 8.38138 167.099 8.48517 168.062 8.69275C169.03 8.89457 169.835 9.18865 170.475 9.57499C171.115 9.96132 171.435 10.4313 171.435 10.9848C171.435 11.2097 171.311 11.5615 171.063 12.0401C170.815 12.5186 170.533 12.9425 170.215 13.3115C169.898 13.6863 169.636 13.8737 169.428 13.8737C169.33 13.8737 169.111 13.7757 168.771 13.5796C168.235 13.3259 167.727 13.1241 167.249 12.9742C166.77 12.83 166.188 12.7579 165.501 12.7579C164.02 12.7579 162.941 13.225 162.267 14.1591C161.592 15.0933 161.255 16.5319 161.255 18.4752C161.255 20.4357 161.575 21.883 162.215 22.8171C162.855 23.7513 163.878 24.2183 165.285 24.2183C166.064 24.2183 166.741 24.1376 167.318 23.9762C167.894 23.8147 168.442 23.6071 168.961 23.3534C169.059 23.313 169.18 23.264 169.325 23.2064C169.463 23.1487 169.567 23.1199 169.636 23.1199C169.89 23.1199 170.169 23.3015 170.475 23.6648C170.775 24.0223 171.034 24.4317 171.253 24.893C171.472 25.3601 171.582 25.7204 171.582 25.9742C171.582 26.62 171.158 27.1418 170.311 27.5397C169.469 27.9318 168.526 28.2115 167.482 28.3787C166.438 28.5517 165.608 28.6382 164.991 28.6382ZM176.754 28.3787C175.261 28.3787 174.514 27.9866 174.514 27.2024V15.2922C174.514 13.4874 174.393 11.9882 174.151 10.7945C174.082 10.414 174.047 10.1458 174.047 9.99015C174.047 9.70761 174.312 9.47984 174.843 9.30686C175.368 9.1281 175.964 8.99548 176.633 8.90899C177.302 8.82826 177.841 8.78789 178.251 8.78789C178.689 8.78789 178.994 8.94935 179.167 9.27226C179.346 9.59517 179.505 10.0651 179.643 10.6821L179.773 11.2357C180.252 10.365 180.802 9.67013 181.425 9.15117C182.053 8.63797 182.861 8.38138 183.847 8.38138C184.666 8.38138 185.228 8.58896 185.533 9.00413C185.845 9.4193 186 9.88925 186 10.414C186 10.6965 185.951 11.0944 185.853 11.6076C185.755 12.1208 185.614 12.5734 185.43 12.9655C185.245 13.3576 185.04 13.5537 184.815 13.5537C184.66 13.5537 184.429 13.5133 184.124 13.4326C183.697 13.3173 183.336 13.2596 183.042 13.2596C182.356 13.2596 181.754 13.4528 181.235 13.8391C180.721 14.2312 180.332 14.6666 180.067 15.1452V27.2024C180.067 27.9866 179.306 28.3787 177.784 28.3787H176.754ZM192.358 36.0679C190.847 36.0679 190.092 35.7998 190.092 35.2636C190.092 35.056 190.141 34.8311 190.239 34.5889L192.626 28.3181L186.424 10.1199C186.407 10.0334 186.378 9.91519 186.338 9.76527C186.297 9.62111 186.277 9.51156 186.277 9.4366C186.277 9.15982 186.459 8.95223 186.822 8.81384C187.185 8.68122 187.762 8.61491 188.552 8.61491H189.78C190.368 8.61491 190.844 8.67545 191.207 8.79654C191.565 8.91763 191.784 9.11657 191.865 9.39335L194.062 16.3215C194.206 16.7597 194.382 17.4603 194.589 18.4233L194.97 20.1445L195.117 20.8624H195.29C195.301 20.7644 195.336 20.6173 195.394 20.4213C195.861 18.1667 196.178 16.8001 196.345 16.3215L198.542 9.39335C198.64 9.09927 198.868 8.89745 199.225 8.78789C199.589 8.67257 200.064 8.61491 200.652 8.61491H201.561C202.333 8.61491 202.901 8.68122 203.265 8.81384C203.622 8.95223 203.801 9.15982 203.801 9.4366C203.801 9.58075 203.766 9.80852 203.697 10.1199L195.082 35.2636C194.898 35.7998 194.2 36.0679 192.989 36.0679H192.358ZM208.843 36.0679C208.071 36.0679 207.5 35.967 207.131 35.7652C206.768 35.5576 206.586 35.2491 206.586 34.8397V15.2922C206.586 14.162 206.554 13.2769 206.491 12.6369C206.427 11.9968 206.347 11.3827 206.249 10.7945C206.179 10.414 206.145 10.1458 206.145 9.99015C206.145 9.70761 206.404 9.47984 206.923 9.30686C207.442 9.1281 208.036 8.99548 208.705 8.90899C209.374 8.82826 209.913 8.78789 210.322 8.78789C210.772 8.78789 211.086 8.95223 211.265 9.28091C211.438 9.60958 211.597 10.0853 211.741 10.708L211.845 11.1924C212.277 10.3621 212.943 9.68743 213.843 9.16847C214.736 8.64374 215.746 8.38138 216.87 8.38138C218.237 8.38138 219.448 8.77636 220.503 9.56634C221.558 10.3563 222.385 11.5153 222.985 13.0434C223.579 14.5714 223.876 16.3964 223.876 18.5184C223.876 20.5597 223.567 22.3414 222.951 23.8637C222.334 25.386 221.431 26.5623 220.243 27.3926C219.061 28.223 217.64 28.6382 215.979 28.6382C214.561 28.6382 213.275 28.2432 212.122 27.4532V34.8397C212.122 35.2491 211.94 35.5576 211.577 35.7652C211.219 35.967 210.654 36.0679 209.881 36.0679H208.843ZM214.76 24.2183C217.083 24.2183 218.245 22.3184 218.245 18.5184C218.245 14.7877 217.236 12.9223 215.218 12.9223C214.036 12.9223 213.004 13.6632 212.122 15.1452V23.5004C212.992 23.979 213.872 24.2183 214.76 24.2183ZM233.849 28.6382C232.055 28.6382 230.692 28.1336 229.758 27.1245C228.823 26.1154 228.356 24.5845 228.356 22.5317V13.0693H227.76C227.367 13.0693 227.082 12.9223 226.903 12.6282C226.73 12.3341 226.644 11.8555 226.644 11.1924V10.561C226.644 9.89789 226.73 9.4193 226.903 9.12522C227.082 8.82537 227.367 8.67545 227.76 8.67545H228.356L228.841 5.11192C228.95 4.32195 229.625 3.92696 230.865 3.92696H232.05C232.695 3.92696 233.171 4.02498 233.477 4.22104C233.777 4.42285 233.927 4.71982 233.927 5.11192V8.67545H235.769C236.161 8.67545 236.446 8.82537 236.625 9.12522C236.798 9.4193 236.885 9.89789 236.885 10.561V11.1924C236.885 11.8555 236.798 12.3341 236.625 12.6282C236.446 12.9223 236.161 13.0693 235.769 13.0693H233.927V22.5923C233.927 23.1689 234.03 23.5841 234.238 23.8378C234.44 24.0915 234.78 24.2183 235.259 24.2183C235.397 24.2183 235.587 24.1953 235.829 24.1491C236.066 24.0972 236.213 24.0713 236.27 24.0713C236.495 24.0713 236.697 24.2587 236.876 24.6335C237.049 25.0083 237.19 25.4206 237.3 25.8704C237.404 26.3201 237.455 26.6229 237.455 26.7785C237.455 28.0183 236.253 28.6382 233.849 28.6382ZM249.028 28.6382C246.053 28.6382 243.79 27.7646 242.239 26.0174C240.682 24.2702 239.903 21.7562 239.903 18.4752C239.903 15.2115 240.682 12.7147 242.239 10.9848C243.79 9.24919 246.053 8.38138 249.028 8.38138C251.998 8.38138 254.253 9.24343 255.792 10.9675C257.332 12.6916 258.101 15.1942 258.101 18.4752C258.101 21.7562 257.332 24.2702 255.792 26.0174C254.253 27.7646 251.998 28.6382 249.028 28.6382ZM249.028 24.2183C250.21 24.2183 251.078 23.7397 251.632 22.7825C252.191 21.8253 252.471 20.3896 252.471 18.4752C252.471 16.5781 252.191 15.1509 251.632 14.1937C251.078 13.2365 250.21 12.7579 249.028 12.7579C246.687 12.7579 245.517 14.6637 245.517 18.4752C245.517 20.378 245.802 21.8109 246.373 22.7739C246.944 23.7369 247.829 24.2183 249.028 24.2183ZM262.772 28.3787C261.261 28.3787 260.506 27.9866 260.506 27.2024V23.734C260.506 22.9325 261.261 22.5317 262.772 22.5317H263.974C264.747 22.5317 265.312 22.6326 265.67 22.8344C266.033 23.042 266.215 23.3419 266.215 23.734V27.2024C266.215 27.9866 265.468 28.3787 263.974 28.3787H262.772ZM278.159 28.6382C274.965 28.6382 272.595 27.8107 271.05 26.1558C269.498 24.5009 268.723 21.9897 268.723 18.6222C268.723 15.2317 269.504 12.6772 271.067 10.9589C272.629 9.24054 275.066 8.38138 278.376 8.38138C279.315 8.38138 280.267 8.48517 281.23 8.69275C282.199 8.89457 283.003 9.18865 283.643 9.57499C284.283 9.96132 284.603 10.4313 284.603 10.9848C284.603 11.2097 284.479 11.5615 284.231 12.0401C283.983 12.5186 283.704 12.9425 283.392 13.3115C283.075 13.6863 282.81 13.8737 282.596 13.8737C282.498 13.8737 282.279 13.7757 281.939 13.5796C281.409 13.3259 280.901 13.1241 280.417 12.9742C279.938 12.83 279.356 12.7579 278.67 12.7579C277.193 12.7579 276.115 13.225 275.435 14.1591C274.76 15.0933 274.423 16.5319 274.423 18.4752C274.423 20.4357 274.743 21.883 275.383 22.8171C276.023 23.7513 277.046 24.2183 278.453 24.2183C279.232 24.2183 279.909 24.1376 280.486 23.9762C281.063 23.8147 281.61 23.6071 282.129 23.3534C282.227 23.313 282.348 23.264 282.493 23.2064C282.631 23.1487 282.735 23.1199 282.804 23.1199C283.058 23.1199 283.337 23.3015 283.643 23.6648C283.943 24.0223 284.202 24.4317 284.421 24.893C284.641 25.3601 284.75 25.7204 284.75 25.9742C284.75 26.62 284.326 27.1418 283.479 27.5397C282.637 27.9318 281.694 28.2115 280.65 28.3787C279.612 28.5517 278.782 28.6382 278.159 28.6382ZM287.449 28.3181C287.293 28.3181 287.132 28.1538 286.964 27.8251C286.797 27.4907 286.653 27.0957 286.532 26.6402C286.411 26.1846 286.35 25.7925 286.35 25.4638C286.35 25.2274 286.385 25.0516 286.454 24.9362L295.077 13.0693H288.08C287.688 13.0693 287.406 12.9223 287.233 12.6282C287.054 12.3341 286.964 11.8555 286.964 11.1924V10.561C286.964 9.89789 287.054 9.4193 287.233 9.12522C287.406 8.82537 287.688 8.67545 288.08 8.67545H301.366C301.492 8.67545 301.645 8.84267 301.824 9.17712C301.997 9.50579 302.147 9.90366 302.274 10.3707C302.401 10.832 302.464 11.2328 302.464 11.573C302.464 11.8382 302.421 12.0285 302.334 12.1438L293.806 23.9243H301.469C301.867 23.9243 302.156 24.0713 302.334 24.3654C302.519 24.6652 302.611 25.1438 302.611 25.8012V26.4412C302.611 27.0986 302.519 27.5772 302.334 27.877C302.156 28.1711 301.867 28.3181 301.469 28.3181H287.449Z" fill="white"/>
  </g>
  <path opacity="0.99" d="M50 0H37.2549V35.6397H50V0Z" fill="white" fill-opacity="0.99"/>
  <path opacity="0.66" d="M31.3725 17.647H18.6274V36H31.3725V17.647Z" fill="white" fill-opacity="0.91"/>
  <path opacity="0.33" d="M12.7451 27.5294H0V36H12.7451V27.5294Z" fill="white" fill-opacity="0.82"/>
  <defs>
    <clipPath id="clip0">
      <rect width="241.611" height="36.2782" fill="white" transform="translate(61)"/>
    </clipPath>
  </defs>
</svg>
