<svg xmlns="http://www.w3.org/2000/svg"
     width="357.611" height="40.721" viewBox="0 0 369.534 40.721" y="51.528">
  <g transform="translate(90.196 -.561)">
    <svg viewBox="-1.42 -32.74 279.34 41.943" width="279.338" height="41.943">
      <path d="M5.66-26.44q-1.36 0-1.99-.34-.62-.34-.62-1.05v-3.49q0-.71.64-1.07.63-.35 1.97-.35h1.2q1.34 0 1.97.35.62.36.62 1.07v3.49q0 .71-.62 1.05-.63.34-1.97.34zM3.13 9.2Q1.37 9.2.39 9-.59 8.79-1 8.3q-.42-.49-.42-1.34 0-.54.21-1.26t.58-1.23q.36-.51.8-.51.12 0 .59.08.46.09.73.09.83 0 1.2-.44.36-.44.36-1.44v-23.66q0-.68.64-1.03.63-.34 1.97-.34h1.2q1.34 0 1.97.34.62.35.62 1.03V2.17q0 2.3-.82 3.88-.82 1.59-2.23 2.37-1.42.78-3.27.78zM20.24.37q-3.32 0-4.87-1.75-1.55-1.75-1.55-4.63 0-2.17.9-3.91.9-1.75 3.66-2.95 2.76-1.19 7.89-1.19v-1.44q0-1.27-.81-1.88-.8-.61-2.56-.61-1.47 0-2.52.3-1.05.31-2.27.82-.63.29-.78.29-.44 0-.96-.66-.53-.66-.92-1.51t-.39-1.29q0-.76 1.09-1.46 1.08-.69 2.99-1.12 1.9-.43 4.22-.43 4.88 0 7.11 1.94 2.22 1.94 2.22 5.31v8.13q0 2.03.11 3.15.11 1.13.3 2.23.13.65.13.92 0 .49-.92.81-.92.32-2.09.46-1.17.15-1.88.15-.75 0-1.08-.65-.33-.65-.53-1.77-.02-.14-.05-.29-.02-.15-.07-.29-.25.46-1.04 1.24T23.41-.28q-1.37.65-3.17.65zm2.12-5.11q1.22 0 2.3-.77 1.07-.76 1.61-1.96v-2.39q-6.08 0-6.08 3.19 0 .86.57 1.4.58.53 1.6.53zM41.13.07q-2.61 0-2.61-1.36v-30.03q0-.71.64-1.07.63-.35 1.97-.35h1.2q2.61 0 2.61 1.42v17.16l.15.05 5.27-7.84q.34-.51.95-.67.61-.16 1.69-.16h1.61q2.44 0 2.44.66 0 .34-.41.83l-6.01 8.62 7.06 11.18q.36.61.36.9 0 .66-2.49.66h-1.81q-1.05 0-1.7-.17-.66-.17-.91-.66l-6.05-9.98-.15.07v9.38q0 1.36-2.61 1.36zm22.41 0q-2.59 0-2.59-1.36v-13.77q0-3.13-.41-5.2-.12-.66-.12-.93 0-.49.91-.79.92-.31 2.08-.46 1.16-.14 1.87-.14.75 0 1.06.56.3.56.55 1.63l.14.64q1.03-1.37 2.75-2.33 1.72-.97 3.7-.97 3.27 0 4.83 1.71 1.57 1.71 1.57 5.3v14.75q0 1.36-2.64 1.36h-1.2q-2.59 0-2.59-1.36v-13.77q0-1.32-.62-2.01-.62-.68-2.01-.68-1.17 0-2.08.78-.9.78-1.36 1.74v13.94q0 1.36-2.64 1.36zm27.12.3q-3.32 0-4.87-1.75-1.55-1.75-1.55-4.63 0-2.17.91-3.91.9-1.75 3.66-2.95 2.76-1.19 7.88-1.19v-1.44q0-1.27-.8-1.88-.81-.61-2.57-.61-1.46 0-2.51.3-1.05.31-2.27.82-.63.29-.78.29-.44 0-.97-.66-.52-.66-.91-1.51t-.39-1.29q0-.76 1.08-1.46 1.09-.69 3-1.12 1.9-.43 4.22-.43 4.88 0 7.1 1.94 2.23 1.94 2.23 5.31v8.13q0 2.03.1 3.15.11 1.13.31 2.23.12.65.12.92 0 .49-.91.81-.92.32-2.09.46-1.17.15-1.88.15-.76 0-1.09-.65-.33-.65-.52-1.77-.03-.14-.05-.29-.03-.15-.07-.29-.25.46-1.04 1.24-.8.78-2.16 1.43-1.37.65-3.18.65zm2.13-5.11q1.22 0 2.29-.77 1.08-.76 1.61-1.96v-2.39q-6.07 0-6.07 3.19 0 .86.57 1.4.57.53 1.6.53zM118.81.37q-5.54 0-8.23-2.87-2.68-2.87-2.68-8.71 0-5.88 2.71-8.86 2.71-2.98 8.44-2.98 1.64 0 3.31.36 1.68.35 2.79 1.02t1.11 1.63q0 .39-.43 1.22t-.98 1.47q-.55.65-.91.65-.17 0-.76-.34-.93-.44-1.76-.7-.83-.25-2.02-.25-2.57 0-3.74 1.62-1.17 1.62-1.17 4.99 0 3.4 1.11 5.02 1.11 1.62 3.55 1.62 1.35 0 2.35-.28t1.9-.72q.17-.07.42-.17.24-.1.36-.1.44 0 .97.63.52.62.9 1.42.38.81.38 1.25 0 1.12-1.47 1.81-1.46.68-3.27.97-1.81.3-2.88.3zm13.6-.3q-2.59 0-2.59-1.36v-13.77q0-3.13-.42-5.2-.12-.66-.12-.93 0-.49.92-.79.91-.31 2.07-.46 1.16-.14 1.87-.14.76 0 1.06.56.31.56.55 1.63l.15.64q.83-1.51 1.91-2.41 1.09-.89 2.8-.89 1.42 0 1.95.72.54.72.54 1.63 0 .49-.17 1.38-.17.89-.49 1.57-.32.68-.71.68-.27 0-.8-.14-.74-.2-1.25-.2-1.19 0-2.09.67-.89.68-1.35 1.51v13.94q0 1.36-2.64 1.36zm18.04 8.89q-2.62 0-2.62-.93 0-.36.17-.78L150.76 0l-7.17-21.04q-.03-.15-.1-.41-.07-.25-.07-.38 0-.48.63-.72.63-.23 2-.23h1.42q1.02 0 1.65.21.62.21.76.69l2.54 8.01q.25.76.61 2.43l.44 1.99.17.83h.2q.02-.17.12-.51.81-3.91 1.1-4.74l2.54-8.01q.17-.51.79-.7.63-.2 1.65-.2h1.05q1.34 0 1.97.23.62.24.62.72 0 .25-.12.79L153.6 8.03q-.32.93-2.42.93zm19.06 0q-1.34 0-1.98-.35-.63-.36-.63-1.07v-22.6q0-1.96-.11-3.07-.11-1.11-.28-2.13-.12-.66-.12-.93 0-.49.9-.79.9-.31 2.06-.46 1.16-.14 1.87-.14.78 0 1.09.57.3.57.55 1.65l.12.56q.75-1.44 2.31-2.34 1.55-.91 3.5-.91 2.37 0 4.2 1.37t2.87 4.02q1.03 2.65 1.03 6.33 0 3.54-1.07 6.18-1.07 2.64-3.13 4.08-2.05 1.44-4.93 1.44-2.46 0-4.46-1.37v8.54q0 .71-.63 1.07-.62.35-1.96.35zm6.84-13.7q4.03 0 4.03-6.59 0-6.47-3.5-6.47-2.05 0-3.58 2.57v9.66q1.51.83 3.05.83zM198.42.37q-3.11 0-4.73-1.75-1.62-1.75-1.62-5.31v-10.94h-.69q-.68 0-.99-.51-.3-.51-.3-1.66v-.73q0-1.15.3-1.66.31-.52.99-.52h.69l.56-4.12q.19-1.37 2.34-1.37h1.37q1.12 0 1.65.34.52.35.52 1.03v4.12h2.13q.68 0 .99.52.3.51.3 1.66v.73q0 1.15-.3 1.66-.31.51-.99.51h-2.13v11.01q0 1 .36 1.44.35.44 1.18.44.24 0 .66-.08.41-.09.51-.09.39 0 .7.65.3.65.49 1.43.18.78.18 1.05 0 2.15-4.17 2.15zm17.55 0q-5.16 0-7.85-3.03-2.7-3.03-2.7-8.72 0-5.66 2.7-8.66 2.69-3.01 7.85-3.01 5.15 0 7.82 2.99t2.67 8.68q0 5.69-2.67 8.72-2.67 3.03-7.82 3.03zm0-5.11q2.05 0 3.01-1.66.97-1.66.97-4.98 0-3.29-.97-4.95-.96-1.66-3.01-1.66-4.06 0-4.06 6.61 0 3.3.99 4.97t3.07 1.67zM231.86.07q-2.62 0-2.62-1.36V-5.3q0-1.39 2.62-1.39h1.39q1.34 0 1.96.35.63.36.63 1.04v4.01q0 1.36-2.59 1.36zm17.79.3q-5.54 0-8.22-2.87-2.69-2.87-2.69-8.71 0-5.88 2.71-8.86 2.71-2.98 8.45-2.98 1.63 0 3.3.36 1.68.35 2.79 1.02t1.11 1.63q0 .39-.43 1.22t-.97 1.47q-.55.65-.92.65-.17 0-.76-.34-.92-.44-1.76-.7-.83-.25-2.02-.25-2.56 0-3.74 1.62-1.17 1.62-1.17 4.99 0 3.4 1.11 5.02 1.11 1.62 3.55 1.62 1.35 0 2.35-.28t1.9-.72q.17-.07.42-.17.24-.1.36-.1.44 0 .97.63.52.62.9 1.42.38.81.38 1.25 0 1.12-1.47 1.81-1.46.68-3.27.97-1.8.3-2.88.3zM260.39 0q-.27 0-.56-.57-.29-.58-.5-1.37-.21-.79-.21-1.36 0-.41.12-.61l9.97-13.72h-8.09q-.68 0-.98-.51-.31-.51-.31-1.66v-.73q0-1.15.31-1.66.3-.52.98-.52h15.36q.22 0 .53.58.3.57.52 1.38.22.8.22 1.39 0 .46-.15.66l-9.86 13.62h8.86q.69 0 1 .51.32.52.32 1.66v.74q0 1.14-.32 1.66-.31.51-1 .51z"
            fill="#fff"
            class="wordmark-0"/>
    </svg>
    <rect width="18" height="41.943" x="-34.196" fill="#fff" opacity=".99" rx="0" ry="0" fill-opacity=".99"
          class="rect-0"
          y="-.139"/>
    <rect width="18" height="41.943" x="-62.196" fill="#fff" opacity=".66" rx="0" ry="0" fill-opacity=".66"
          class="rect-1"
          y="-.139"/>
    <rect width="18" height="41.943" x="-90.196" fill="#fff" opacity=".33" rx="0" ry="0" fill-opacity=".33"
          class="rect-2"
          y="-.139"/>
  </g>
</svg>
