<?xml version="1.0" standalone="no"?>
<!DOCTYPE svg PUBLIC "-//W3C//DTD SVG 20010904//EN"
 "http://www.w3.org/TR/2001/REC-SVG-20010904/DTD/svg10.dtd">
<svg version="1.0" xmlns="http://www.w3.org/2000/svg"
 width="934.000000pt" height="934.000000pt" viewBox="0 0 934.000000 934.000000"
 preserveAspectRatio="xMidYMid meet">
<metadata>
Created by potrace 1.11, written by Peter Selinger 2001-2013
</metadata>
<g transform="translate(0.000000,934.000000) scale(0.100000,-0.100000)"
fill="#000000" stroke="none">
<path d="M1960 4665 l0 -1905 655 0 655 0 0 1905 0 1905 -655 0 -655 0 0
-1905z"/>
<path d="M4000 4660 l0 -1910 665 0 665 0 0 1910 0 1910 -665 0 -665 0 0
-1910z"/>
<path d="M6060 4660 l0 -1910 665 0 665 0 0 1910 0 1910 -665 0 -665 0 0
-1910z"/>
</g>
</svg>
