<?xml version="1.0" standalone="no"?>
<!DOCTYPE svg PUBLIC "-//W3C//DTD SVG 20010904//EN"
 "http://www.w3.org/TR/2001/REC-SVG-20010904/DTD/svg10.dtd">
<svg version="1.0" xmlns="http://www.w3.org/2000/svg"
 width="400.000000pt" height="400.000000pt" viewBox="0 0 400.000000 400.000000"
 preserveAspectRatio="xMidYMid meet">
<metadata>
Created by potrace 1.11, written by Peter Selinger 2001-2013
</metadata>
<g transform="translate(0.000000,400.000000) scale(0.100000,-0.100000)"
fill="#000000" stroke="none">
<path d="M0 2000 l0 -2000 2000 0 2000 0 0 2000 0 2000 -2000 0 -2000 0 0
-2000z m1830 455 c0 -289 3 -525 8 -525 4 0 92 90 197 200 l190 200 265 -1
265 0 -263 -257 c-144 -141 -262 -260 -262 -265 0 -4 126 -140 280 -302 154
-162 280 -297 280 -300 0 -3 -123 -5 -272 -5 l-273 0 -205 232 -205 231 -3
-232 -2 -231 -195 0 -195 0 0 890 0 890 195 0 195 0 0 -525z"/>
</g>
</svg>
