<?xml version="1.0" standalone="no"?>
<!DOCTYPE svg PUBLIC "-//W3C//DTD SVG 20010904//EN"
 "http://www.w3.org/TR/2001/REC-SVG-20010904/DTD/svg10.dtd">
<svg version="1.0" xmlns="http://www.w3.org/2000/svg"
 width="800.000000pt" height="800.000000pt" viewBox="0 0 800.000000 800.000000"
 preserveAspectRatio="xMidYMid meet">
<metadata>
Created by potrace 1.11, written by Peter Selinger 2001-2013
</metadata>
<g transform="translate(0.000000,800.000000) scale(0.100000,-0.100000)"
fill="#000000" stroke="none">
<path d="M5952 4028 l3 -2853 1023 -3 1022 -2 0 2855 0 2855 -1025 0 -1025 0
2 -2852z"/>
<path d="M2980 2590 l0 -1470 1020 0 1020 0 0 1470 0 1470 -1020 0 -1020 0 0
-1470z"/>
<path d="M0 1795 l0 -675 1015 0 1015 0 0 675 0 675 -1015 0 -1015 0 0 -675z"/>
</g>
</svg>
